<?xml version="1.0" standalone="no"?><!DOCTYPE svg PUBLIC "-//W3C//DTD SVG 1.1//EN" "http://www.w3.org/Graphics/SVG/1.1/DTD/svg11.dtd"><svg t="1483447658821" class="icon" style="" viewBox="0 0 1024 1024" version="1.1" xmlns="http://www.w3.org/2000/svg" p-id="3600" xmlns:xlink="http://www.w3.org/1999/xlink" width="32" height="32"><defs><style type="text/css"></style></defs><path d="M892.065966 342.854722c-0.148387-12.10527-0.223091-17.081846-0.296773-22.800356-0.297796-17.081846-1.411207-34.312079-4.307302-49.759627-3.193892-16.78405-7.426489-32.084235-15.224457-47.383396-7.872672-15.522253-18.64144-28.890343-30.300527-40.847226-11.957907-11.66011-25.399678-22.428878-40.84825-30.30155-15.299162-7.724286-30.524641-12.031588-47.382373-15.224457-15.447548-2.896095-32.677781-4.010529-49.759627-4.307302-5.718509-0.074705-10.694063-0.148387-22.800356-0.297796-11.585405-0.073682-21.017671-0.148387-27.999001-0.148387L370.705336 131.784624c-6.98133 0-16.413595 0.074705-27.925319 0.148387-12.106293 0.148387-17.081846 0.223091-22.800356 0.297796-17.081846 0.296773-34.312079 1.411207-49.759627 4.307302-16.78405 3.193892-32.084235 7.426489-47.383396 15.224457-15.522253 7.872672-28.890343 18.64144-40.847226 30.30155-11.66011 11.956883-22.428878 25.399678-30.30155 40.847226-7.724286 15.299162-12.031588 30.523618-15.224457 47.383396-2.896095 15.447548-4.010529 32.677781-4.307302 49.759627-0.074705 3.862143-0.074705 7.426489-0.148387 12.996612l-0.223091 334.205323c0 4.232597 0.074705 8.837696 0.074705 13.887955 0.148387 12.106293 0.223091 17.081846 0.296773 22.800356 0.296773 17.081846 1.411207 34.312079 4.307302 49.759627 1.411207 7.352808 2.9708 14.407819 4.975553 21.240762 2.599322 8.837696 5.866896 17.453324 10.248903 26.067929 7.872672 15.522253 18.64144 28.890343 30.30155 40.847226 11.956883 11.66011 25.399678 22.428878 40.847226 30.30155 15.299162 7.724286 30.523618 12.031588 47.383396 15.224457 15.447548 2.896095 32.677781 4.010529 49.759627 4.307302 5.718509 0.074705 10.694063 0.148387 22.800356 0.296773 11.511724 0.074705 20.942966 0.148387 27.925319 0.148387l158.933216 0L529.638552 597.296663l-95.58343 0L434.055121 487.008641l94.915179 0L528.970301 384.370199c0-78.798357 60.899873-135.242541 139.623525-135.242541l101.895486 2.227844 0 105.906015-77.833333 0c-22.502559 0-40.772521 24.879814-40.772521 47.457078l0 82.289022 114.818416 0-16.33889 110.361704L648.244406 597.369321l0 294.844008 4.901872 0c6.98133 0 16.413595-0.074705 27.925319-0.148387 9.580652-0.074705 14.705615-0.148387 19.234986-0.148387 1.188115 0 2.376231 0 3.639051-0.074705 17.081846-0.296773 34.312079-1.411207 49.759627-4.307302 16.78405-3.193892 32.084235-7.426489 47.382373-15.22548 15.522253-7.872672 28.890343-18.64144 40.84825-30.30155 11.66011-11.956883 22.428878-25.399678 30.300527-40.847226 7.724286-15.299162 12.031588-30.523618 15.224457-47.382373 2.897119-15.447548 4.010529-32.677781 4.307302-49.759627 0.073682-5.718509 0.148387-10.695086 0.296773-22.800356 0.074705-11.511724 0.14941-20.943989 0.14941-27.924296L892.214353 362.758982C892.214353 357.114154 892.140671 350.429597 892.065966 342.854722z" p-id="3601"></path></svg>